<?xml version="1.0" encoding="UTF-8"?>
<svg data-bbox="0 0 971.44 502" viewBox="0 0 971.44 502" height="502" width="971.44" xmlns:xlink="http://www.w3.org/1999/xlink" xmlns="http://www.w3.org/2000/svg" data-type="ugc">
    <g>
        <defs>
            <linearGradient gradientUnits="userSpaceOnUse" y2="199" x2="599.5" y1="668.05" x1="599.5" id="54d883e2-6a34-4831-bbdd-cbe38f03c8b9">
                <stop stop-opacity=".25" stop-color="#808080" offset="0"/>
                <stop stop-opacity=".12" stop-color="#808080" offset=".54"/>
                <stop stop-opacity=".1" stop-color="#808080" offset="1"/>
            </linearGradient>
            <linearGradient xlink:href="#54d883e2-6a34-4831-bbdd-cbe38f03c8b9" y2="71.12" x2="485.72" y1="258.88" x1="485.72" id="0ea0ad8d-a9f1-432f-bb7c-f85b3072cd47"/>
            <linearGradient xlink:href="#54d883e2-6a34-4831-bbdd-cbe38f03c8b9" y2="515" x2="303" y1="515" x1="132" id="e0ff3c13-efae-4c4a-84e6-bd15b1472b6d"/>
            <linearGradient xlink:href="#54d883e2-6a34-4831-bbdd-cbe38f03c8b9" y2="568.28" x2="1031" y1="568.28" x1="933" id="45f128e2-b4c6-4b7c-9e81-f15bfd65a920"/>
        </defs>
        <path fill="url(#54d883e2-6a34-4831-bbdd-cbe38f03c8b9)" transform="translate(-114.28 -199)" d="M852.69 199H346.31A16.37 16.37 0 0 0 330 215.42v348.52a16.37 16.37 0 0 0 16.31 16.42h174.16v60.16h-7.94a8.3 8.3 0 0 0-8.27 8.33v12.07h16.21v7.14h158.06v-7.14h16.21v-12.07a8.3 8.3 0 0 0-8.27-8.33H679V640h-.51v-59.64h174.2A16.37 16.37 0 0 0 869 563.94V215.42A16.37 16.37 0 0 0 852.69 199z" opacity=".7"/>
        <path fill="#bdbdbd" d="M563.72 371v92h-156v-92h156z"/>
        <path d="M410.79 380h150.17c1.81-7.87 3.26-13 3.26-13h-157s1.61 5.11 3.57 13z" opacity=".1"/>
        <path fill="#535461" d="M235.82 3h499.8a16.1 16.1 0 0 1 16.1 16.1V327h-532V19.1A16.1 16.1 0 0 1 235.82 3z"/>
        <path fill="#bdbdbd" d="M735.62 377h-499.8a16.1 16.1 0 0 1-16.1-16.1V327h532v33.9a16.1 16.1 0 0 1-16.1 16.1z"/>
        <path fill="#535461" d="M494.72 352a9 9 0 1 1-18 0 9 9 0 0 1 18 0z"/>
        <path fill="#bdbdbd" d="M399.89 436h171.66a8.17 8.17 0 0 1 8.17 8.17V456h-188v-11.83a8.17 8.17 0 0 1 8.17-8.17z"/>
        <path fill="url(#0ea0ad8d-a9f1-432f-bb7c-f85b3072cd47)" d="M650.72 75.62v178.76a4.5 4.5 0 0 1-4.5 4.5h-321a4.5 4.5 0 0 1-4.5-4.5V75.62a4.5 4.5 0 0 1 4.5-4.5h321a4.5 4.5 0 0 1 4.5 4.5z" opacity=".5"/>
        <path fill="#ffffff" d="M646.49 77v174.96a4.5 4.5 0 0 1-4.5 4.5H329.45a4.5 4.5 0 0 1-4.5-4.5V77a4.5 4.5 0 0 1 4.5-4.5h312.54a4.5 4.5 0 0 1 4.5 4.5z"/>
        <path fill="#7600ed" d="M449.96 103.41v22.9a4.5 4.5 0 0 1-4.5 4.5h-26.44a4.5 4.5 0 0 1-4.5-4.5v-22.9a4.5 4.5 0 0 1 4.5-4.5h26.44a4.5 4.5 0 0 1 4.5 4.5z" opacity=".5"/>
        <path fill="#e0e0e0" d="M556.28 100.68a1.77 1.77 0 0 1-1.77 1.77h-92.15a1.77 1.77 0 1 1 0-3.54h92.15c.978 0 1.77.792 1.77 1.77z"/>
        <path fill="#e0e0e0" d="M540.13 111.32a1.77 1.77 0 0 1-1.77 1.77h-76a1.77 1.77 0 1 1 0-3.54h76c.978 0 1.77.792 1.77 1.77z"/>
        <path fill="#7600ed" d="M449.96 153.03v22.9a4.5 4.5 0 0 1-4.5 4.5h-26.44a4.5 4.5 0 0 1-4.5-4.5v-22.9a4.5 4.5 0 0 1 4.5-4.5h26.44a4.5 4.5 0 0 1 4.5 4.5z" opacity=".5"/>
        <path fill="#e0e0e0" d="M556.28 150.3a1.77 1.77 0 0 1-1.77 1.77h-92.15a1.77 1.77 0 1 1 0-3.54h92.15c.978 0 1.77.792 1.77 1.77z"/>
        <path fill="#e0e0e0" d="M556.28 160.93a1.77 1.77 0 0 1-1.77 1.77h-92.15a1.77 1.77 0 1 1 0-3.54h92.15c.978 0 1.77.792 1.77 1.77z"/>
        <path fill="#7600ed" d="M449.96 202.65v22.9a4.5 4.5 0 0 1-4.5 4.5h-26.44a4.5 4.5 0 0 1-4.5-4.5v-22.9a4.5 4.5 0 0 1 4.5-4.5h26.44a4.5 4.5 0 0 1 4.5 4.5z" opacity=".5"/>
        <path fill="#e0e0e0" d="M556.28 199.92a1.77 1.77 0 0 1-1.77 1.77h-92.15a1.77 1.77 0 1 1 0-3.54h92.15c.978 0 1.77.792 1.77 1.77z"/>
        <path fill="#e0e0e0" d="M556.92 210.37v.36a1.59 1.59 0 0 1-1.59 1.59h-93.15a1.59 1.59 0 0 1-1.59-1.59v-.36c0-.878.712-1.59 1.59-1.59h93.15c.878 0 1.59.712 1.59 1.59z"/>
        <path stroke-width="2" stroke-miterlimit="10" stroke="#7600ed" d="M485.72 42V20"/>
        <path stroke-width="2" stroke-miterlimit="10" stroke="#7600ed" d="M485.72 79V50.13"/>
        <path fill="#7600ed" d="M489.72 79a4 4 0 1 1-8 0 4 4 0 0 1 8 0z"/>
        <path stroke-miterlimit="10" stroke="#ffffff" fill="none" d="M489.72 46a4 4 0 1 1-8 0 4 4 0 0 1 8 0z"/>
        <path stroke-width="2" stroke-miterlimit="10" stroke="#7600ed" d="M485.72 42V20"/>
        <path stroke-width="2" stroke-miterlimit="10" stroke="#7600ed" d="M485.72 79V50.13"/>
        <path fill="#7600ed" d="M489.72 79a4 4 0 1 1-8 0 4 4 0 0 1 8 0z"/>
        <path stroke-miterlimit="10" stroke="#ffffff" fill="none" d="M489.72 46a4 4 0 1 1-8 0 4 4 0 0 1 8 0z"/>
        <path stroke-width="2" stroke-miterlimit="10" stroke="#7600ed" d="M485.72 279v31"/>
        <path stroke-width="2" stroke-miterlimit="10" stroke="#7600ed" d="M485.72 251v28.87"/>
        <path fill="#7600ed" d="M489.72 251a4 4 0 1 1-8 0 4 4 0 0 1 8 0z"/>
        <path stroke-width="2" stroke-miterlimit="10" stroke="#7600ed" d="M305.72 168.5h-31.5"/>
        <path stroke-width="2" stroke-miterlimit="10" stroke="#7600ed" d="M333.22 168.5h-28.87"/>
        <path fill="#7600ed" d="M337.22 168.5a4 4 0 1 1-8 0 4 4 0 0 1 8 0z"/>
        <path d="M564.22 435.5v3h-156v-3h156z" opacity=".1"/>
        <path fill="url(#e0ff3c13-efae-4c4a-84e6-bd15b1472b6d)" transform="translate(-114.28 -199)" d="M293.48 566.06h-72.4l1-8.14c20.46-18.37 33.69-67.31 33.69-67.31a6.78 6.78 0 0 0-.87.18c-12 2.42-20.54 7.35-26.51 13.28l2.54-21.66c37.8-8.14 52.79-58.14 52.79-58.14-24.12 5.35-39.16 13.63-48.5 21.49l3.72-31.82c25.56 8.77 52-37.82 52-37.82l-1-.21.5-.32-.76.27c-28.25-6.09-43.35 10.06-48.25 16.77l.37-3.12q-1.12 3-2.18 5.88v.08q-3 8.13-5.49 16.06-2.17 6.77-4.06 13.4v-.06s-1.17-28.46-31.18-35.95c0 0 3.15 62.07 26.93 51.91-2.2 9-4 17.66-5.56 26.07q-1.49 8.21-2.6 16l-.14.16.14-.12-.06.41q-1 7.07-1.7 13.78c.46-8.62-1.11-33.52-30.45-56.92 0 0-39 68.54 27.5 82l.44.38-.1-.31.6.13.27-3.52a369.39 369.39 0 0 0 .23 44.1c.07 1 .14 2 .21 2.95h-73.23c-27.94 57.79 15.52 89.46 15.52 89.46h120c46.6-58.74 16.59-89.34 16.59-89.34zm-78-65.68z" opacity=".7"/>
        <path opacity=".6" stroke-width="3" stroke-miterlimit="10" stroke="#535461" fill="none" d="M102.72 389s-19-83 23-190"/>
        <path fill="#7600ed" d="M28.72 364h147s29 37-16 92h-116s-42-38-15-92z"/>
        <path fill="#4db6ac" d="M123.61 204.5s14.61-26 49.61-18c0 0-28.93 49.26-55 33.13z"/>
        <path fill="#4db6ac" d="M114.35 232.09s-1.13-26.59-30.13-33.59c0 0 3 58 26 48.5z"/>
        <path fill="#4db6ac" d="M104.87 271.36s5.35-27.86 61.35-39.86c0 0-17.86 57.62-63.93 55.31z"/>
        <path fill="#4db6ac" d="M100.33 302.63s5.89-29.13-29.11-56.13c0 0-38 64.67 27.48 76.83z"/>
        <path fill="#4db6ac" d="M99.28 342.67s-4.06-41.17 39.94-49.17c0 0-16.07 57.49-40 67.74z"/>
        <path opacity=".3" stroke-miterlimit="10" stroke="#535461" fill="none" d="M118.72 220s38-29 54-34"/>
        <path opacity=".3" stroke-miterlimit="10" stroke="#535461" fill="none" d="M102.22 286.5s46-49 64-55"/>
        <path opacity=".3" stroke-miterlimit="10" stroke="#535461" fill="none" d="M84.22 198.5s28 38 26 48"/>
        <path opacity=".3" stroke-miterlimit="10" stroke="#535461" fill="none" d="M71.22 246.5s15 68 27 77"/>
        <path opacity=".3" stroke-miterlimit="10" stroke="#535461" fill="none" d="M99.22 361.5s24-66 40-68"/>
        <path d="M175.72 364h-147c-.33.67-.65 1.34-1 2h143s28.29 36.11-14.4 90h3.4c45-55 16-92 16-92z" opacity=".1"/>
        <path fill="#e0e0e0" d="M971.44 455.6v32.93H0V455.6h971.44z"/>
        <path fill="#e0e0e0" d="M930.27 488.53V502H41.16v-13.47h889.11z"/>
        <path opacity=".1" d="M930.27 488.53v4.49H41.16v-4.49h889.11z"/>
        <path stroke-width="2" stroke-miterlimit="10" stroke="#7600ed" d="M690.22 168.5h6"/>
        <path stroke-width="2" stroke-miterlimit="10" stroke="#7600ed" d="M637.22 168.5h44.88"/>
        <path fill="#7600ed" d="M641.22 168.5a4 4 0 1 1-8 0 4 4 0 0 1 8 0z"/>
        <path stroke-miterlimit="10" stroke="#ffffff" fill="none" d="M690.22 168.5a4 4 0 1 1-8 0 4 4 0 0 1 8 0z"/>
        <path fill="url(#45f128e2-b4c6-4b7c-9e81-f15bfd65a920)" transform="translate(-114.28 -199)" d="M1027 643.88l.1-.15q.31-.48.61-1l.11-.19q.29-.49.55-1l.09-.17c.2-.39.39-.78.56-1.19a23.79 23.79 0 0 0 .94-2.51l.1-.33c.09-.31.18-.62.26-.93l.1-.44q.1-.42.18-.85c0-.16.06-.32.09-.48s.09-.56.13-.85 0-.33.06-.49.06-.61.08-.92V548h-13.85v-40.48h-17V548h-11.72v-58.14h-17V548H965v-66.45h-17V548h-15v82.6c0 13.48 11.21 24.4 25 24.4h48a25.19 25.19 0 0 0 20.24-10.06q.37-.53.76-1.06z" opacity=".7"/>
        <path fill="#535461" d="M851.72 321v100h-16V321h16z"/>
        <path fill="#3ad29f" d="M851.72 288v33h-16v-33h16z"/>
        <path fill="#535461" d="M873.72 329v100h-16V329h16z"/>
        <path fill="#4d8af0" d="M873.72 296v33h-16v-33h16z"/>
        <path fill="#535461" d="M900.72 346v100h-16V346h16z"/>
        <path fill="#f55f44" d="M900.72 313v33h-16v-33h16z"/>
        <path fill="#7600ed" d="M821.72 352h92v79.5a23.5 23.5 0 0 1-23.5 23.5h-45a23.5 23.5 0 0 1-23.5-23.5V352z"/>
        <path d="M821.72 352v4h88v79.5a23.39 23.39 0 0 1-5 14.49 23.45 23.45 0 0 0 9-18.49V352z" opacity=".1"/>
    </g>
</svg>
